HIERARCHY
ROOT Hips
{
  OFFSET 17.3705 40.9002 -4.04143
  CHANNELS 6 Xposition Yposition Zposition Zrotation Xrotation Yrotation
  JOINT LeftHip
  {
    OFFSET 3.43 0 0
    CHANNELS 6 Xposition Yposition Zposition Zrotation Xrotation Yrotation
    JOINT LeftKnee
    {
      OFFSET 0 -18.47 0
      CHANNELS 6 Xposition Yposition Zposition Zrotation Xrotation Yrotation
      JOINT LeftAnkle
      {
        OFFSET 0 -17.95 0
        CHANNELS 6 Xposition Yposition Zposition Zrotation Xrotation Yrotation
        End Site
        {
          OFFSET 0 -3.12 0
        }
      }
    }
  }
  JOINT RightHip
  {
    OFFSET -3.43 0 0
    CHANNELS 6 Xposition Yposition Zposition Zrotation Xrotation Yrotation
    JOINT RightKnee
    {
      OFFSET 0 -18.47 0
      CHANNELS 6 Xposition Yposition Zposition Zrotation Xrotation Yrotation
      JOINT RightAnkle
      {
        OFFSET 0 -17.95 0
        CHANNELS 6 Xposition Yposition Zposition Zrotation Xrotation Yrotation
        End Site
        {
          OFFSET 0 -3.12 0
        }
      }
    }
  }
  JOINT Chest
  {
    OFFSET 0 4.57 0
    CHANNELS 6 Xposition Yposition Zposition Zrotation Xrotation Yrotation
    JOINT CS_BVH
    {
      OFFSET 0 6.57 0
      CHANNELS 6 Xposition Yposition Zposition Zrotation Xrotation Yrotation
      JOINT LeftCollar
      {
        OFFSET 1.06 4.19 1.76
        CHANNELS 6 Xposition Yposition Zposition Zrotation Xrotation Yrotation
        JOINT LeftShoulder
        {
          OFFSET 5.81 0 0
          CHANNELS 6 Xposition Yposition Zposition Zrotation Xrotation Yrotation
          JOINT LeftElbow
          {
            OFFSET 0 -12.08 0
            CHANNELS 6 Xposition Yposition Zposition Zrotation Xrotation Yrotation
            JOINT LeftWrist
            {
              OFFSET 0 -9.82 0
              CHANNELS 6 Xposition Yposition Zposition Zrotation Xrotation Yrotation
              End Site
              {
                OFFSET 0 -7.37 0
              }
            }
          }
        }
      }
      JOINT RightCollar
      {
        OFFSET -1.06 4.19 1.76
        CHANNELS 6 Xposition Yposition Zposition Zrotation Xrotation Yrotation
        JOINT RightShoulder
        {
          OFFSET -6.06 0 0
          CHANNELS 6 Xposition Yposition Zposition Zrotation Xrotation Yrotation
          JOINT RightElbow
          {
            OFFSET 0 -11.08 0
            CHANNELS 6 Xposition Yposition Zposition Zrotation Xrotation Yrotation
            JOINT RightWrist
            {
              OFFSET 0 -9.82 0
              CHANNELS 6 Xposition Yposition Zposition Zrotation Xrotation Yrotation
              End Site
              {
                OFFSET 0 -7.14001 0
              }
            }
          }
        }
      }
      JOINT Neck
      {
        OFFSET 0 4.05 0
        CHANNELS 6 Xposition Yposition Zposition Zrotation Xrotation Yrotation
        JOINT Head
        {
          OFFSET 0 5.19 0
          CHANNELS 6 Xposition Yposition Zposition Zrotation Xrotation Yrotation
          End Site
          {
            OFFSET 0 4.14001 0
          }
        }
      }
    }
  }
}
MOTION
Frames:	9
Frame Time:	0.0333333
18.6404 40.8789 -4.67195 -0.2803 -0.0531521 -0.274127 3.43 9.12756e-010 -1.60032e-011 5.32456 0.792997 -0.0226587 1.57372e-008 -18.47 1.10541e-007 -2.54964 21.1619 -2.93519 1.5558e-008 -17.95 3.38894e-008 10.9254 -11.8368 -0.402061 -3.43 -9.12749e-010 1.60023e-011 -6.63413 2.43662 -1.81973 4.27853e-008 -18.47 -1.42709e-007 -0.0110587 14.0596 6.09732 -2.59563e-008 -17.95 2.98131e-008 -4.75983 -6.28063 0.250468 -1.05168e-009 4.57 4.29798e-011 -0.366659 -0.248401 0.094221 -1.67976e-009 6.57 2.67812e-010 0.907212 -0.510402 0.199171 1.06 4.19 1.76 8.20436 -0.630391 0.209949 5.81 -5.77685e-010 -2.42139e-010 79.9711 6.53363 -0.282488 -4.70036e-009 -12.08 6.73172e-010 3.2877 -0.356469 0.0637492 -1.10605e-009 -9.82 -1.29618e-009 -0.871991 -1.62125 -0.112322 -1.06 4.19 1.76 -7.78166 -0.72386 0.452456 -6.06 -5.89036e-008 -4.70616e-010 -81.1444 3.1279 6.72618 -7.10448e-009 -11.08 -5.62306e-011 -4.52141 -0.220187 -7.17636 -1.10928e-009 -9.82 1.29577e-009 3.10757 4.63392 -0.459982 4.66962e-010 4.05 1.19922e-010 2.09072 -1.27795 0.106102 3.38399e-009 5.19 -2.27068e-010 -2.06524 0.325474 0.840914 
18.5981 40.8222 -4.59244 0.964071 -1.31854 -1.9225 3.43 9.12756e-010 -1.60032e-011 3.65197 3.37979 0.346448 1.57372e-008 -18.47 1.10541e-007 -2.36215 19.3003 -1.37769 1.5558e-008 -17.95 3.38894e-008 11.1164 -12.3347 -0.403924 -3.43 -9.12749e-010 1.60023e-011 -8.17859 2.6166 -1.94004 4.27853e-008 -18.47 -1.42709e-007 0.145468 15.6836 7.63815 -2.59563e-008 -17.95 2.98131e-008 -5.11359 -6.78892 0.294722 -1.05168e-009 4.57 4.29798e-011 -1.05921 0.00540937 0.510833 -1.67976e-009 6.57 2.67812e-010 0.280421 0.0190253 0.860618 1.06 4.19 1.76 6.95285 0.170096 0.71554 5.81 -5.77685e-010 -2.42139e-010 80.7707 6.52962 -0.507007 -4.70036e-009 -12.08 6.73172e-010 2.98824 -0.32412 0.993972 -1.10605e-009 -9.82 -1.29618e-009 -1.41132 -1.38021 -0.257347 -1.06 4.19 1.76 -8.74011 -0.138591 1.39872 -6.06 -5.89036e-008 -4.70616e-010 -80.6241 3.14304 6.62543 -7.10448e-009 -11.08 -5.62306e-011 -4.4602 -0.200756 -6.97176 -1.10928e-009 -9.82 1.29577e-009 3.3793 4.57963 -0.497628 4.66962e-010 4.05 1.19922e-010 1.37305 -0.622408 0.857608 3.38399e-009 5.19 -2.27068e-010 -1.89699 0.13616 0.694495 
18.6107 40.8662 -4.59367 0.898211 -1.21379 -1.96455 3.43 9.12756e-010 -1.60032e-011 3.79297 3.06641 0.217759 1.57372e-008 -18.47 1.10541e-007 -2.44604 19.716 -1.3887 1.5558e-008 -17.95 3.38894e-008 10.9766 -12.092 -0.409809 -3.43 -9.12749e-010 1.60023e-011 -8.08553 2.70997 -2.02685 4.27853e-008 -18.47 -1.42709e-007 0.0685687 15.1624 7.57485 -2.59563e-008 -17.95 2.98131e-008 -5.07135 -6.68847 0.303272 -1.05168e-009 4.57 4.29798e-011 -0.971172 -0.0619854 0.499852 -1.67976e-009 6.57 2.67812e-010 0.257073 -0.121671 0.883896 1.06 4.19 1.76 6.94524 -0.0171688 0.719409 5.81 -5.77685e-010 -2.42139e-010 80.7567 6.46925 -0.66562 -4.70036e-009 -12.08 6.73172e-010 2.74314 -0.299685 1.23373 -1.10605e-009 -9.82 -1.29618e-009 -1.40265 -1.23098 -0.269136 -1.06 4.19 1.76 -8.89413 -0.353868 1.60362 -6.06 -5.89036e-008 -4.70616e-010 -80.2478 3.25768 6.85277 -7.10448e-009 -11.08 -5.62306e-011 -4.38075 -0.191927 -6.8843 -1.10928e-009 -9.82 1.29577e-009 3.54559 4.47359 -0.519211 4.66962e-010 4.05 1.19922e-010 1.32053 -0.539997 0.873165 3.38399e-009 5.19 -2.27068e-010 -1.7975 -0.0528099 0.642534 
18.6159 40.8314 -4.60959 1.03976 -1.11532 -2.0424 3.43 9.12756e-010 -1.60032e-011 3.49024 3.31275 0.350063 1.57372e-008 -18.47 1.10541e-007 -2.27534 18.9581 -0.785605 1.5558e-008 -17.95 3.38894e-008 11.5939 -13.0671 -0.376768 -3.43 -9.12749e-010 1.60023e-011 -8.28752 2.37218 -1.95312 4.27853e-008 -18.47 -1.42709e-007 0.144557 15.6141 7.70273 -2.59563e-008 -17.95 2.98131e-008 -5.05316 -6.70639 0.308669 -1.05168e-009 4.57 4.29798e-011 -1.12426 -0.115543 0.509553 -1.67976e-009 6.57 2.67812e-010 0.188579 -0.22233 0.864415 1.06 4.19 1.76 7.03844 -0.152791 0.830856 5.81 -5.77685e-010 -2.42139e-010 80.453 6.34433 -0.453898 -4.70036e-009 -12.08 6.73172e-010 2.81895 -0.295107 1.3517 -1.10605e-009 -9.82 -1.29618e-009 -1.34303 -1.21852 -0.252818 -1.06 4.19 1.76 -9.18839 -0.479922 1.49458 -6.06 -5.89036e-008 -4.70616e-010 -80.0176 2.93477 6.83182 -7.10448e-009 -11.08 -5.62306e-011 -4.32753 -0.189098 -6.92036 -1.10928e-009 -9.82 1.29577e-009 4.0236 4.45904 -0.587173 4.66962e-010 4.05 1.19922e-010 1.16761 -0.767415 0.941486 3.38399e-009 5.19 -2.27068e-010 -1.65648 0.346657 0.653909 
18.6255 40.8162 -4.62495 0.991682 -1.12628 -2.02077 3.43 9.12756e-010 -1.60032e-011 3.56732 3.24649 0.344814 1.57372e-008 -18.47 1.10541e-007 -2.34432 19.1287 -1.17447 1.5558e-008 -17.95 3.38894e-008 11.1342 -12.3786 -0.398593 -3.43 -9.12749e-010 1.60023e-011 -8.29663 2.31461 -1.91954 4.27853e-008 -18.47 -1.42709e-007 0.222315 15.8033 7.85054 -2.59563e-008 -17.95 2.98131e-008 -5.107 -6.77425 0.312645 -1.05168e-009 4.57 4.29798e-011 -1.13485 -0.143926 0.53968 -1.67976e-009 6.57 2.67812e-010 0.197233 -0.278217 0.918722 1.06 4.19 1.76 7.0364 -0.223964 0.774728 5.81 -5.77685e-010 -2.42139e-010 80.5145 6.24806 -0.582512 -4.70036e-009 -12.08 6.73172e-010 2.77212 -0.298339 1.16059 -1.10605e-009 -9.82 -1.29618e-009 -1.12651 -1.12685 -0.208084 -1.06 4.19 1.76 -9.20828 -0.562496 1.47635 -6.06 -5.89036e-008 -4.70616e-010 -79.9253 3.00173 6.8346 -7.10448e-009 -11.08 -5.62306e-011 -4.28935 -0.171797 -6.68639 -1.10928e-009 -9.82 1.29577e-009 3.87847 4.4651 -0.566736 4.66962e-010 4.05 1.19922e-010 1.17181 -0.625074 0.954646 3.38399e-009 5.19 -2.27068e-010 -1.90218 -0.153119 0.691082 
18.6317 40.814 -4.63712 1.07212 -1.17081 -2.04399 3.43 9.12756e-010 -1.60032e-011 3.43156 3.33533 0.287646 1.57372e-008 -18.47 1.10541e-007 -2.29886 19.0327 -1.13701 1.5558e-008 -17.95 3.38894e-008 11.0843 -12.3242 -0.404246 -3.43 -9.12749e-010 1.60023e-011 -8.41505 2.38097 -2.03002 4.27853e-008 -18.47 -1.42709e-007 0.23395 15.6961 7.76048 -2.59563e-008 -17.95 2.98131e-008 -5.17539 -6.83979 0.315206 -1.05168e-009 4.57 4.29798e-011 -1.15502 -0.15767 0.55401 -1.67976e-009 6.57 2.67812e-010 0.145839 -0.306184 0.952358 1.06 4.19 1.76 6.80907 -0.262121 0.740981 5.81 -5.77685e-010 -2.42139e-010 80.6636 6.16573 -0.442302 -4.70036e-009 -12.08 6.73172e-010 2.8287 -0.30751 1.3706 -1.10605e-009 -9.82 -1.29618e-009 -1.11799 -1.15724 -0.203883 -1.06 4.19 1.76 -9.2827 -0.606179 1.51164 -6.06 -5.89036e-008 -4.70616e-010 -80.0704 3.03253 6.72738 -7.10448e-009 -11.08 -5.62306e-011 -4.323 -0.181818 -6.82967 -1.10928e-009 -9.82 1.29577e-009 4.07964 4.62611 -0.598631 4.66962e-010 4.05 1.19922e-010 0.953848 -0.790954 1.0556 3.38399e-009 5.19 -2.27068e-010 -1.68061 0.100062 0.597823 
18.6299 40.8143 -4.6453 0.972407 -1.22829 -2.10867 3.43 9.12756e-010 -1.60032e-011 3.50951 3.39017 0.280202 1.57372e-008 -18.47 1.10541e-007 -2.23897 19.0702 -1.15831 1.5558e-008 -17.95 3.38894e-008 11.0867 -12.2915 -0.408708 -3.43 -9.12749e-010 1.60023e-011 -8.29679 2.53963 -2.01405 4.27853e-008 -18.47 -1.42709e-007 0.20242 15.4663 7.85577 -2.59563e-008 -17.95 2.98131e-008 -5.19106 -6.83335 0.316348 -1.05168e-009 4.57 4.29798e-011 -1.13334 -0.172345 0.557872 -1.67976e-009 6.57 2.67812e-010 0.127264 -0.337612 0.967531 1.06 4.19 1.76 6.97877 -0.29545 0.790849 5.81 -5.77685e-010 -2.42139e-010 80.5069 6.06624 -0.044384 -4.70036e-009 -12.08 6.73172e-010 3.17921 -0.344056 0.781712 -1.10605e-009 -9.82 -1.29618e-009 -1.07645 -1.27289 -0.185734 -1.06 4.19 1.76 -9.07673 -0.664531 1.70541 -6.06 -5.89036e-008 -4.70616e-010 -80.2317 3.16065 6.52819 -7.10448e-009 -11.08 -5.62306e-011 -4.40562 -0.16031 -6.48784 -1.10928e-009 -9.82 1.29577e-009 4.51189 4.58325 -0.659211 4.66962e-010 4.05 1.19922e-010 1.13828 -0.812179 1.06978 3.38399e-009 5.19 -2.27068e-010 -2.04988 -0.134324 0.796531 
18.6408 40.8162 -4.66704 1.03698 -1.14888 -2.20611 3.43 9.12756e-010 -1.60032e-011 3.4088 3.34145 0.282766 1.57372e-008 -18.47 1.10541e-007 -2.25141 19.0031 -1.03358 1.5558e-008 -17.95 3.38894e-008 11.0873 -12.3139 -0.409829 -3.43 -9.12749e-010 1.60023e-011 -8.46118 2.32387 -2.04417 4.27853e-008 -18.47 -1.42709e-007 0.300156 15.6239 8.04615 -2.59563e-008 -17.95 2.98131e-008 -5.17052 -6.8153 0.316153 -1.05168e-009 4.57 4.29798e-011 -1.19497 -0.20347 0.593573 -1.67976e-009 6.57 2.67812e-010 0.062889 -0.397967 1.03382 1.06 4.19 1.76 7.05075 -0.3583 0.959027 5.81 -5.77685e-010 -2.42139e-010 80.4295 5.88535 0.102237 -4.70036e-009 -12.08 6.73172e-010 3.23634 -0.349904 0.845787 -1.10605e-009 -9.82 -1.29618e-009 -1.1485 -1.08949 -0.215977 -1.06 4.19 1.76 -9.18548 -0.732912 1.48975 -6.06 -5.89036e-008 -4.70616e-010 -80.1134 2.91595 6.3941 -7.10448e-009 -11.08 -5.62306e-011 -4.45895 -0.184645 -6.76435 -1.10928e-009 -9.82 1.29577e-009 4.3278 4.66897 -0.635032 4.66962e-010 4.05 1.19922e-010 1.17572 -1.02341 1.08808 3.38399e-009 5.19 -2.27068e-010 -2.11593 0.0194273 0.803274 
18.6391 40.8139 -4.70145 0.982266 -1.33914 -2.28217 3.43 9.12756e-010 -1.60032e-011 3.46796 3.44038 0.327712 1.57372e-008 -18.47 1.10541e-007 -2.26986 19.0949 -1.01481 1.5558e-008 -17.95 3.38894e-008 11.0546 -12.2588 -0.404253 -3.43 -9.12749e-010 1.60023e-011 -8.43337 2.42636 -2.06558 4.27853e-008 -18.47 -1.42709e-007 0.334602 15.619 8.02334 -2.59563e-008 -17.95 2.98131e-008 -5.17328 -6.81669 0.314681 -1.05168e-009 4.57 4.29798e-011 -1.17559 -0.160472 0.593468 -1.67976e-009 6.57 2.67812e-010 0.0861269 -0.31213 1.03114 1.06 4.19 1.76 6.68389 -0.251567 0.970051 5.81 -5.77685e-010 -2.42139e-010 80.9112 6.08495 -0.355648 -4.70036e-009 -12.08 6.73172e-010 2.9651 -0.325359 1.00338 -1.10605e-009 -9.82 -1.29618e-009 -1.28438 -1.29801 -0.231924 -1.06 4.19 1.76 -9.33538 -0.622886 1.54109 -6.06 -5.89036e-008 -4.70616e-010 -79.891 2.91429 6.36007 -7.10448e-009 -11.08 -5.62306e-011 -4.5182 -0.214057 -7.15598 -1.10928e-009 -9.82 1.29577e-009 3.92052 4.68799 -0.577867 4.66962e-010 4.05 1.19922e-010 1.01544 -1.02374 1.12784 3.38399e-009 5.19 -2.27068e-010 -1.99174 0.12514 0.744045 
